<svg width="468" height="200" viewBox="0 0 468 200" fill="none" xmlns="http://www.w3.org/2000/svg">
<circle cx="78.5668" cy="180.388" r="3.56679" fill="#D15439"/>
<path d="M90.4935 184.388L93.5895 175.988H94.6575L97.7415 184.388H96.6735L95.9055 182.228H92.3295L91.5495 184.388H90.4935ZM92.6295 181.412H95.6055L94.1175 177.26L92.6295 181.412ZM101.698 184.532C101.13 184.532 100.618 184.404 100.162 184.148C99.7142 183.884 99.3582 183.52 99.0942 183.056C98.8382 182.584 98.7102 182.036 98.7102 181.412C98.7102 180.788 98.8382 180.244 99.0942 179.78C99.3582 179.308 99.7142 178.944 100.162 178.688C100.618 178.424 101.13 178.292 101.698 178.292C102.402 178.292 102.994 178.476 103.474 178.844C103.962 179.212 104.27 179.704 104.398 180.32H103.366C103.286 179.952 103.09 179.668 102.778 179.468C102.466 179.26 102.102 179.156 101.686 179.156C101.35 179.156 101.034 179.24 100.738 179.408C100.442 179.576 100.202 179.828 100.018 180.164C99.8342 180.5 99.7422 180.916 99.7422 181.412C99.7422 181.908 99.8342 182.324 100.018 182.66C100.202 182.996 100.442 183.252 100.738 183.428C101.034 183.596 101.35 183.68 101.686 183.68C102.102 183.68 102.466 183.58 102.778 183.38C103.09 183.172 103.286 182.88 103.366 182.504H104.398C104.278 183.104 103.974 183.592 103.486 183.968C102.998 184.344 102.402 184.532 101.698 184.532ZM108.354 184.388C107.81 184.388 107.382 184.256 107.07 183.992C106.758 183.728 106.602 183.252 106.602 182.564V179.288H105.57V178.436H106.602L106.734 177.008H107.61V178.436H109.362V179.288H107.61V182.564C107.61 182.94 107.686 183.196 107.838 183.332C107.99 183.46 108.258 183.524 108.642 183.524H109.266V184.388H108.354ZM111.614 177.116C111.414 177.116 111.246 177.052 111.11 176.924C110.982 176.788 110.918 176.62 110.918 176.42C110.918 176.228 110.982 176.068 111.11 175.94C111.246 175.812 111.414 175.748 111.614 175.748C111.806 175.748 111.97 175.812 112.106 175.94C112.242 176.068 112.31 176.228 112.31 176.42C112.31 176.62 112.242 176.788 112.106 176.924C111.97 177.052 111.806 177.116 111.614 177.116ZM111.11 184.388V178.436H112.118V184.388H111.11ZM115.95 184.388L113.694 178.436H114.75L116.538 183.416L118.338 178.436H119.37L117.114 184.388H115.95ZM123.223 184.532C122.655 184.532 122.151 184.404 121.711 184.148C121.271 183.884 120.923 183.52 120.667 183.056C120.419 182.592 120.295 182.044 120.295 181.412C120.295 180.788 120.419 180.244 120.667 179.78C120.915 179.308 121.259 178.944 121.699 178.688C122.147 178.424 122.663 178.292 123.247 178.292C123.823 178.292 124.319 178.424 124.735 178.688C125.159 178.944 125.483 179.284 125.707 179.708C125.931 180.132 126.043 180.588 126.043 181.076C126.043 181.164 126.039 181.252 126.031 181.34C126.031 181.428 126.031 181.528 126.031 181.64H121.291C121.315 182.096 121.419 182.476 121.603 182.78C121.795 183.076 122.031 183.3 122.311 183.452C122.599 183.604 122.903 183.68 123.223 183.68C123.639 183.68 123.987 183.584 124.267 183.392C124.547 183.2 124.751 182.94 124.879 182.612H125.875C125.715 183.164 125.407 183.624 124.951 183.992C124.503 184.352 123.927 184.532 123.223 184.532ZM123.223 179.144C122.743 179.144 122.315 179.292 121.939 179.588C121.571 179.876 121.359 180.3 121.303 180.86H125.047C125.023 180.324 124.839 179.904 124.495 179.6C124.151 179.296 123.727 179.144 123.223 179.144ZM131.335 184.388V175.988H132.511L135.535 181.844L138.535 175.988H139.723V184.388H138.715V177.788L135.907 183.188H135.151L132.343 177.8V184.388H131.335ZM144.471 184.532C143.903 184.532 143.399 184.404 142.959 184.148C142.519 183.884 142.171 183.52 141.915 183.056C141.667 182.592 141.543 182.044 141.543 181.412C141.543 180.788 141.667 180.244 141.915 179.78C142.163 179.308 142.507 178.944 142.947 178.688C143.395 178.424 143.911 178.292 144.495 178.292C145.071 178.292 145.567 178.424 145.983 178.688C146.407 178.944 146.731 179.284 146.955 179.708C147.179 180.132 147.291 180.588 147.291 181.076C147.291 181.164 147.287 181.252 147.279 181.34C147.279 181.428 147.279 181.528 147.279 181.64H142.539C142.563 182.096 142.667 182.476 142.851 182.78C143.043 183.076 143.279 183.3 143.559 183.452C143.847 183.604 144.151 183.68 144.471 183.68C144.887 183.68 145.235 183.584 145.515 183.392C145.795 183.2 145.999 182.94 146.127 182.612H147.123C146.963 183.164 146.655 183.624 146.199 183.992C145.751 184.352 145.175 184.532 144.471 184.532ZM144.471 179.144C143.991 179.144 143.563 179.292 143.187 179.588C142.819 179.876 142.607 180.3 142.551 180.86H146.295C146.271 180.324 146.087 179.904 145.743 179.6C145.399 179.296 144.975 179.144 144.471 179.144ZM148.987 184.388V178.436H149.899L149.971 179.3C150.163 178.98 150.419 178.732 150.739 178.556C151.059 178.38 151.419 178.292 151.819 178.292C152.291 178.292 152.695 178.388 153.031 178.58C153.375 178.772 153.639 179.064 153.823 179.456C154.031 179.096 154.315 178.812 154.675 178.604C155.043 178.396 155.439 178.292 155.863 178.292C156.575 178.292 157.143 178.508 157.567 178.94C157.991 179.364 158.203 180.02 158.203 180.908V184.388H157.207V181.016C157.207 180.4 157.083 179.936 156.835 179.624C156.587 179.312 156.231 179.156 155.767 179.156C155.287 179.156 154.887 179.344 154.567 179.72C154.255 180.088 154.099 180.616 154.099 181.304V184.388H153.091V181.016C153.091 180.4 152.967 179.936 152.719 179.624C152.471 179.312 152.115 179.156 151.651 179.156C151.179 179.156 150.783 179.344 150.463 179.72C150.151 180.088 149.995 180.616 149.995 181.304V184.388H148.987ZM163.261 184.532C162.773 184.532 162.337 184.432 161.953 184.232C161.577 184.032 161.289 183.752 161.089 183.392L160.993 184.388H160.081V175.748H161.089V179.42C161.281 179.132 161.553 178.872 161.905 178.64C162.265 178.408 162.721 178.292 163.273 178.292C163.865 178.292 164.381 178.428 164.821 178.7C165.261 178.972 165.601 179.344 165.841 179.816C166.089 180.288 166.213 180.824 166.213 181.424C166.213 182.024 166.089 182.56 165.841 183.032C165.601 183.496 165.257 183.864 164.809 184.136C164.369 184.4 163.853 184.532 163.261 184.532ZM163.153 183.656C163.553 183.656 163.905 183.564 164.209 183.38C164.513 183.188 164.753 182.924 164.929 182.588C165.105 182.252 165.193 181.86 165.193 181.412C165.193 180.964 165.105 180.572 164.929 180.236C164.753 179.9 164.513 179.64 164.209 179.456C163.905 179.264 163.553 179.168 163.153 179.168C162.753 179.168 162.401 179.264 162.097 179.456C161.793 179.64 161.553 179.9 161.377 180.236C161.201 180.572 161.113 180.964 161.113 181.412C161.113 181.86 161.201 182.252 161.377 182.588C161.553 182.924 161.793 183.188 162.097 183.38C162.401 183.564 162.753 183.656 163.153 183.656ZM170.652 184.532C170.084 184.532 169.58 184.404 169.14 184.148C168.7 183.884 168.352 183.52 168.096 183.056C167.848 182.592 167.724 182.044 167.724 181.412C167.724 180.788 167.848 180.244 168.096 179.78C168.344 179.308 168.688 178.944 169.128 178.688C169.576 178.424 170.092 178.292 170.676 178.292C171.252 178.292 171.748 178.424 172.164 178.688C172.588 178.944 172.912 179.284 173.136 179.708C173.36 180.132 173.472 180.588 173.472 181.076C173.472 181.164 173.468 181.252 173.46 181.34C173.46 181.428 173.46 181.528 173.46 181.64H168.72C168.744 182.096 168.848 182.476 169.032 182.78C169.224 183.076 169.46 183.3 169.74 183.452C170.028 183.604 170.332 183.68 170.652 183.68C171.068 183.68 171.416 183.584 171.696 183.392C171.976 183.2 172.18 182.94 172.308 182.612H173.304C173.144 183.164 172.836 183.624 172.38 183.992C171.932 184.352 171.356 184.532 170.652 184.532ZM170.652 179.144C170.172 179.144 169.744 179.292 169.368 179.588C169 179.876 168.788 180.3 168.732 180.86H172.476C172.452 180.324 172.268 179.904 171.924 179.6C171.58 179.296 171.156 179.144 170.652 179.144ZM175.168 184.388V178.436H176.08L176.164 179.576C176.348 179.184 176.628 178.872 177.004 178.64C177.38 178.408 177.844 178.292 178.396 178.292V179.348H178.12C177.768 179.348 177.444 179.412 177.148 179.54C176.852 179.66 176.616 179.868 176.44 180.164C176.264 180.46 176.176 180.868 176.176 181.388V184.388H175.168ZM182.168 184.532C181.456 184.532 180.864 184.352 180.392 183.992C179.92 183.632 179.644 183.144 179.564 182.528H180.596C180.66 182.84 180.824 183.112 181.088 183.344C181.36 183.568 181.724 183.68 182.18 183.68C182.604 183.68 182.916 183.592 183.116 183.416C183.316 183.232 183.416 183.016 183.416 182.768C183.416 182.408 183.284 182.168 183.02 182.048C182.764 181.928 182.4 181.82 181.928 181.724C181.608 181.66 181.288 181.568 180.968 181.448C180.648 181.328 180.38 181.16 180.164 180.944C179.948 180.72 179.84 180.428 179.84 180.068C179.84 179.548 180.032 179.124 180.416 178.796C180.808 178.46 181.336 178.292 182 178.292C182.632 178.292 183.148 178.452 183.548 178.772C183.956 179.084 184.192 179.532 184.256 180.116H183.26C183.22 179.812 183.088 179.576 182.864 179.408C182.648 179.232 182.356 179.144 181.988 179.144C181.628 179.144 181.348 179.22 181.148 179.372C180.956 179.524 180.86 179.724 180.86 179.972C180.86 180.212 180.984 180.4 181.232 180.536C181.488 180.672 181.832 180.788 182.264 180.884C182.632 180.964 182.98 181.064 183.308 181.184C183.644 181.296 183.916 181.468 184.124 181.7C184.34 181.924 184.448 182.252 184.448 182.684C184.456 183.22 184.252 183.664 183.836 184.016C183.428 184.36 182.872 184.532 182.168 184.532Z" fill="white"/>
<circle cx="278.7" cy="180.388" r="3.56679" fill="#FFAE35"/>
<path d="M291.155 184.388V175.988H292.163V184.388H291.155ZM294.124 184.388V178.436H295.036L295.096 179.504C295.288 179.128 295.564 178.832 295.924 178.616C296.284 178.4 296.692 178.292 297.148 178.292C297.852 178.292 298.412 178.508 298.828 178.94C299.252 179.364 299.464 180.02 299.464 180.908V184.388H298.456V181.016C298.456 179.776 297.944 179.156 296.92 179.156C296.408 179.156 295.98 179.344 295.636 179.72C295.3 180.088 295.132 180.616 295.132 181.304V184.388H294.124ZM303.211 184.532C302.715 184.532 302.303 184.448 301.975 184.28C301.647 184.112 301.403 183.888 301.243 183.608C301.083 183.328 301.003 183.024 301.003 182.696C301.003 182.088 301.235 181.62 301.699 181.292C302.163 180.964 302.795 180.8 303.595 180.8H305.203V180.728C305.203 180.208 305.067 179.816 304.795 179.552C304.523 179.28 304.159 179.144 303.703 179.144C303.311 179.144 302.971 179.244 302.683 179.444C302.403 179.636 302.227 179.92 302.155 180.296H301.123C301.163 179.864 301.307 179.5 301.555 179.204C301.811 178.908 302.127 178.684 302.503 178.532C302.879 178.372 303.279 178.292 303.703 178.292C304.535 178.292 305.159 178.516 305.575 178.964C305.999 179.404 306.211 179.992 306.211 180.728V184.388H305.311L305.251 183.32C305.083 183.656 304.835 183.944 304.507 184.184C304.187 184.416 303.755 184.532 303.211 184.532ZM303.367 183.68C303.751 183.68 304.079 183.58 304.351 183.38C304.631 183.18 304.843 182.92 304.987 182.6C305.131 182.28 305.203 181.944 305.203 181.592V181.58H303.679C303.087 181.58 302.667 181.684 302.419 181.892C302.179 182.092 302.059 182.344 302.059 182.648C302.059 182.96 302.171 183.212 302.395 183.404C302.627 183.588 302.951 183.68 303.367 183.68ZM310.7 184.532C310.132 184.532 309.62 184.404 309.164 184.148C308.716 183.884 308.36 183.52 308.096 183.056C307.84 182.584 307.712 182.036 307.712 181.412C307.712 180.788 307.84 180.244 308.096 179.78C308.36 179.308 308.716 178.944 309.164 178.688C309.62 178.424 310.132 178.292 310.7 178.292C311.404 178.292 311.996 178.476 312.476 178.844C312.964 179.212 313.272 179.704 313.4 180.32H312.368C312.288 179.952 312.092 179.668 311.78 179.468C311.468 179.26 311.104 179.156 310.688 179.156C310.352 179.156 310.036 179.24 309.74 179.408C309.444 179.576 309.204 179.828 309.02 180.164C308.836 180.5 308.744 180.916 308.744 181.412C308.744 181.908 308.836 182.324 309.02 182.66C309.204 182.996 309.444 183.252 309.74 183.428C310.036 183.596 310.352 183.68 310.688 183.68C311.104 183.68 311.468 183.58 311.78 183.38C312.092 183.172 312.288 182.88 312.368 182.504H313.4C313.28 183.104 312.976 183.592 312.488 183.968C312 184.344 311.404 184.532 310.7 184.532ZM317.235 184.388C316.691 184.388 316.263 184.256 315.951 183.992C315.639 183.728 315.483 183.252 315.483 182.564V179.288H314.451V178.436H315.483L315.615 177.008H316.491V178.436H318.243V179.288H316.491V182.564C316.491 182.94 316.567 183.196 316.719 183.332C316.871 183.46 317.139 183.524 317.523 183.524H318.147V184.388H317.235ZM320.376 177.116C320.176 177.116 320.008 177.052 319.872 176.924C319.744 176.788 319.68 176.62 319.68 176.42C319.68 176.228 319.744 176.068 319.872 175.94C320.008 175.812 320.176 175.748 320.376 175.748C320.568 175.748 320.732 175.812 320.868 175.94C321.004 176.068 321.072 176.228 321.072 176.42C321.072 176.62 321.004 176.788 320.868 176.924C320.732 177.052 320.568 177.116 320.376 177.116ZM319.872 184.388V178.436H320.88V184.388H319.872ZM324.591 184.388L322.335 178.436H323.391L325.179 183.416L326.979 178.436H328.011L325.755 184.388H324.591ZM331.744 184.532C331.176 184.532 330.672 184.404 330.232 184.148C329.792 183.884 329.444 183.52 329.188 183.056C328.94 182.592 328.816 182.044 328.816 181.412C328.816 180.788 328.94 180.244 329.188 179.78C329.436 179.308 329.78 178.944 330.22 178.688C330.668 178.424 331.184 178.292 331.768 178.292C332.344 178.292 332.84 178.424 333.256 178.688C333.68 178.944 334.004 179.284 334.228 179.708C334.452 180.132 334.564 180.588 334.564 181.076C334.564 181.164 334.56 181.252 334.552 181.34C334.552 181.428 334.552 181.528 334.552 181.64H329.812C329.836 182.096 329.94 182.476 330.124 182.78C330.316 183.076 330.552 183.3 330.832 183.452C331.12 183.604 331.424 183.68 331.744 183.68C332.16 183.68 332.508 183.584 332.788 183.392C333.068 183.2 333.272 182.94 333.4 182.612H334.396C334.236 183.164 333.928 183.624 333.472 183.992C333.024 184.352 332.448 184.532 331.744 184.532ZM331.744 179.144C331.264 179.144 330.836 179.292 330.46 179.588C330.092 179.876 329.88 180.3 329.824 180.86H333.568C333.544 180.324 333.36 179.904 333.016 179.6C332.672 179.296 332.248 179.144 331.744 179.144ZM339.616 184.388V175.988H340.792L343.816 181.844L346.816 175.988H348.004V184.388H346.996V177.788L344.188 183.188H343.432L340.624 177.8V184.388H339.616ZM352.632 184.532C352.064 184.532 351.56 184.404 351.12 184.148C350.68 183.884 350.332 183.52 350.076 183.056C349.828 182.592 349.704 182.044 349.704 181.412C349.704 180.788 349.828 180.244 350.076 179.78C350.324 179.308 350.668 178.944 351.108 178.688C351.556 178.424 352.072 178.292 352.656 178.292C353.232 178.292 353.728 178.424 354.144 178.688C354.568 178.944 354.892 179.284 355.116 179.708C355.34 180.132 355.452 180.588 355.452 181.076C355.452 181.164 355.448 181.252 355.44 181.34C355.44 181.428 355.44 181.528 355.44 181.64H350.7C350.724 182.096 350.828 182.476 351.012 182.78C351.204 183.076 351.44 183.3 351.72 183.452C352.008 183.604 352.312 183.68 352.632 183.68C353.048 183.68 353.396 183.584 353.676 183.392C353.956 183.2 354.16 182.94 354.288 182.612H355.284C355.124 183.164 354.816 183.624 354.36 183.992C353.912 184.352 353.336 184.532 352.632 184.532ZM352.632 179.144C352.152 179.144 351.724 179.292 351.348 179.588C350.98 179.876 350.768 180.3 350.712 180.86H354.456C354.432 180.324 354.248 179.904 353.904 179.6C353.56 179.296 353.136 179.144 352.632 179.144ZM357.028 184.388V178.436H357.94L358.012 179.3C358.204 178.98 358.46 178.732 358.78 178.556C359.1 178.38 359.46 178.292 359.86 178.292C360.332 178.292 360.736 178.388 361.072 178.58C361.416 178.772 361.68 179.064 361.864 179.456C362.072 179.096 362.356 178.812 362.716 178.604C363.084 178.396 363.48 178.292 363.904 178.292C364.616 178.292 365.184 178.508 365.608 178.94C366.032 179.364 366.244 180.02 366.244 180.908V184.388H365.248V181.016C365.248 180.4 365.124 179.936 364.876 179.624C364.628 179.312 364.272 179.156 363.808 179.156C363.328 179.156 362.928 179.344 362.608 179.72C362.296 180.088 362.14 180.616 362.14 181.304V184.388H361.132V181.016C361.132 180.4 361.008 179.936 360.76 179.624C360.512 179.312 360.156 179.156 359.692 179.156C359.22 179.156 358.824 179.344 358.504 179.72C358.192 180.088 358.036 180.616 358.036 181.304V184.388H357.028ZM371.182 184.532C370.694 184.532 370.258 184.432 369.874 184.232C369.498 184.032 369.21 183.752 369.01 183.392L368.914 184.388H368.002V175.748H369.01V179.42C369.202 179.132 369.474 178.872 369.826 178.64C370.186 178.408 370.642 178.292 371.194 178.292C371.786 178.292 372.302 178.428 372.742 178.7C373.182 178.972 373.522 179.344 373.762 179.816C374.01 180.288 374.134 180.824 374.134 181.424C374.134 182.024 374.01 182.56 373.762 183.032C373.522 183.496 373.178 183.864 372.73 184.136C372.29 184.4 371.774 184.532 371.182 184.532ZM371.074 183.656C371.474 183.656 371.826 183.564 372.13 183.38C372.434 183.188 372.674 182.924 372.85 182.588C373.026 182.252 373.114 181.86 373.114 181.412C373.114 180.964 373.026 180.572 372.85 180.236C372.674 179.9 372.434 179.64 372.13 179.456C371.826 179.264 371.474 179.168 371.074 179.168C370.674 179.168 370.322 179.264 370.018 179.456C369.714 179.64 369.474 179.9 369.298 180.236C369.122 180.572 369.034 180.964 369.034 181.412C369.034 181.86 369.122 182.252 369.298 182.588C369.474 182.924 369.714 183.188 370.018 183.38C370.322 183.564 370.674 183.656 371.074 183.656ZM378.454 184.532C377.886 184.532 377.382 184.404 376.942 184.148C376.502 183.884 376.154 183.52 375.898 183.056C375.65 182.592 375.526 182.044 375.526 181.412C375.526 180.788 375.65 180.244 375.898 179.78C376.146 179.308 376.49 178.944 376.93 178.688C377.378 178.424 377.894 178.292 378.478 178.292C379.054 178.292 379.55 178.424 379.966 178.688C380.39 178.944 380.714 179.284 380.938 179.708C381.162 180.132 381.274 180.588 381.274 181.076C381.274 181.164 381.27 181.252 381.262 181.34C381.262 181.428 381.262 181.528 381.262 181.64H376.522C376.546 182.096 376.65 182.476 376.834 182.78C377.026 183.076 377.262 183.3 377.542 183.452C377.83 183.604 378.134 183.68 378.454 183.68C378.87 183.68 379.218 183.584 379.498 183.392C379.778 183.2 379.982 182.94 380.11 182.612H381.106C380.946 183.164 380.638 183.624 380.182 183.992C379.734 184.352 379.158 184.532 378.454 184.532ZM378.454 179.144C377.974 179.144 377.546 179.292 377.17 179.588C376.802 179.876 376.59 180.3 376.534 180.86H380.278C380.254 180.324 380.07 179.904 379.726 179.6C379.382 179.296 378.958 179.144 378.454 179.144ZM382.85 184.388V178.436H383.762L383.846 179.576C384.03 179.184 384.31 178.872 384.686 178.64C385.062 178.408 385.526 178.292 386.078 178.292V179.348H385.802C385.45 179.348 385.126 179.412 384.83 179.54C384.534 179.66 384.298 179.868 384.122 180.164C383.946 180.46 383.858 180.868 383.858 181.388V184.388H382.85ZM389.729 184.532C389.017 184.532 388.425 184.352 387.953 183.992C387.481 183.632 387.205 183.144 387.125 182.528H388.157C388.221 182.84 388.385 183.112 388.649 183.344C388.921 183.568 389.285 183.68 389.741 183.68C390.165 183.68 390.477 183.592 390.677 183.416C390.877 183.232 390.977 183.016 390.977 182.768C390.977 182.408 390.845 182.168 390.581 182.048C390.325 181.928 389.961 181.82 389.489 181.724C389.169 181.66 388.849 181.568 388.529 181.448C388.209 181.328 387.941 181.16 387.725 180.944C387.509 180.72 387.401 180.428 387.401 180.068C387.401 179.548 387.593 179.124 387.977 178.796C388.369 178.46 388.897 178.292 389.561 178.292C390.193 178.292 390.709 178.452 391.109 178.772C391.517 179.084 391.753 179.532 391.817 180.116H390.821C390.781 179.812 390.649 179.576 390.425 179.408C390.209 179.232 389.917 179.144 389.549 179.144C389.189 179.144 388.909 179.22 388.709 179.372C388.517 179.524 388.421 179.724 388.421 179.972C388.421 180.212 388.545 180.4 388.793 180.536C389.049 180.672 389.393 180.788 389.825 180.884C390.193 180.964 390.541 181.064 390.869 181.184C391.205 181.296 391.477 181.468 391.685 181.7C391.901 181.924 392.009 182.252 392.009 182.684C392.017 183.22 391.813 183.664 391.397 184.016C390.989 184.36 390.433 184.532 389.729 184.532Z" fill="white"/>
<path d="M15.5393 65.6867C15.5393 64.0299 16.8825 62.6867 18.5393 62.6867C20.1962 62.6867 21.5393 64.0299 21.5393 65.6867V137.314H15.5393V65.6867Z" fill="#D15439"/>
<path d="M24.3483 79.8658C24.3483 78.209 25.6914 76.8658 27.3483 76.8658C29.0051 76.8658 30.3483 78.209 30.3483 79.8658V137.314H24.3483V79.8658Z" fill="#FFAE35"/>
<path d="M68.3481 28.3733C68.3481 26.7165 69.6913 25.3733 71.3481 25.3733C73.005 25.3733 74.3481 26.7165 74.3481 28.3733V137.314H68.3481V28.3733Z" fill="#D15439"/>
<path d="M77.1571 52.2539C77.1571 50.5971 78.5003 49.2539 80.1571 49.2539C81.814 49.2539 83.1571 50.5971 83.1571 52.2539V137.314H77.1571V52.2539Z" fill="#FFAE35"/>
<path d="M121.157 53.0002C121.157 51.3433 122.5 50.0002 124.157 50.0002C125.814 50.0002 127.157 51.3433 127.157 53.0002V137.314H121.157V53.0002Z" fill="#D15439"/>
<path d="M129.966 71.6569C129.966 70.0001 131.309 68.6569 132.966 68.6569C134.623 68.6569 135.966 70.0001 135.966 71.6569V137.314H129.966V71.6569Z" fill="#FFAE35"/>
<path d="M173.966 59.5547C173.966 57.8979 175.309 56.5547 176.966 56.5547C178.623 56.5547 179.966 57.8979 179.966 59.5547V137.314H173.966V59.5547Z" fill="#D15439"/>
<path d="M182.775 24.4423C182.775 22.7855 184.118 21.4423 185.775 21.4423C187.432 21.4423 188.775 22.7855 188.775 24.4423V137.314H182.775V24.4423Z" fill="#FFAE35"/>
<path d="M226.775 59.5548C226.775 57.898 228.118 56.5548 229.775 56.5548C231.432 56.5548 232.775 57.898 232.775 59.5548V137.314H226.775V59.5548Z" fill="#D15439"/>
<path d="M235.584 80.3883C235.584 78.7314 236.927 77.3883 238.584 77.3883C240.241 77.3883 241.584 78.7314 241.584 80.3883V137.314H235.584V80.3883Z" fill="#FFAE35"/>
<path d="M279.584 84.3677C279.584 82.7108 280.927 81.3677 282.584 81.3677C284.241 81.3677 285.584 82.7108 285.584 84.3677V137.314H279.584V84.3677Z" fill="#D15439"/>
<path d="M288.393 100.051C288.393 98.3944 289.736 97.0513 291.393 97.0513C293.05 97.0513 294.393 98.3944 294.393 100.051V137.314H288.393V100.051Z" fill="#FFAE35"/>
<path d="M332.393 129.12C332.393 127.463 333.736 126.12 335.393 126.12C337.05 126.12 338.393 127.463 338.393 129.12V137.314H332.393V129.12Z" fill="#D15439"/>
<path d="M341.202 108.224C341.202 106.567 342.545 105.224 344.202 105.224C345.859 105.224 347.202 106.567 347.202 108.224V137.314H341.202V108.224Z" fill="#FFAE35"/>
<path d="M385.202 61.1933C385.202 59.5364 386.545 58.1933 388.202 58.1933C389.859 58.1933 391.202 59.5364 391.202 61.1933V137.313H385.202V61.1933Z" fill="#D15439"/>
<path d="M394.011 39.4237C394.011 37.7668 395.354 36.4237 397.011 36.4237C398.668 36.4237 400.011 37.7668 400.011 39.4237V137.314H394.011V39.4237Z" fill="#FFAE35"/>
<path d="M438.011 45.7439C438.011 44.0871 439.354 42.7439 441.011 42.7439C442.668 42.7439 444.011 44.0871 444.011 45.7439V137.314H438.011V45.7439Z" fill="#D15439"/>
<path d="M446.82 56.0436C446.82 54.3868 448.163 53.0436 449.82 53.0436C451.477 53.0436 452.82 54.3868 452.82 56.0436V137.314H446.82V56.0436Z" fill="#FFAE35"/>
<line x1="2.99984" y1="137.824" x2="465.359" y2="137.197" stroke="white" stroke-width="0.234083"/>
<path d="M18.791 153.06C18.3035 153.06 17.9154 152.923 17.6269 152.65C17.3433 152.376 17.2015 151.99 17.2015 151.493H17.9925C17.9925 151.742 18.0522 151.948 18.1716 152.112C18.296 152.277 18.4975 152.359 18.7761 152.359C19.0498 152.359 19.2438 152.282 19.3582 152.127C19.4726 151.968 19.5299 151.767 19.5299 151.523V147.747H20.3209V151.523C20.3209 152.015 20.1841 152.396 19.9104 152.665C19.6368 152.928 19.2637 153.06 18.791 153.06ZM22.7509 153.06C22.4375 153.06 22.1788 153.008 21.9748 152.903C21.7708 152.799 21.6191 152.662 21.5196 152.493C21.4201 152.319 21.3703 152.13 21.3703 151.926C21.3703 151.568 21.5096 151.284 21.7882 151.075C22.0669 150.866 22.4649 150.762 22.9823 150.762H23.9524V150.694C23.9524 150.406 23.8728 150.189 23.7136 150.045C23.5594 149.901 23.3579 149.829 23.1091 149.829C22.8902 149.829 22.6987 149.884 22.5345 149.993C22.3753 150.097 22.2783 150.254 22.2435 150.463H21.4524C21.4773 150.194 21.5669 149.966 21.7211 149.777C21.8803 149.583 22.0793 149.436 22.3181 149.336C22.5619 149.232 22.828 149.18 23.1166 149.18C23.634 149.18 24.0345 149.316 24.3181 149.59C24.6017 149.859 24.7435 150.227 24.7435 150.694V152.971H24.0569L23.9897 152.336C23.8853 152.54 23.7335 152.712 23.5345 152.851C23.3355 152.99 23.0743 153.06 22.7509 153.06ZM22.9076 152.418C23.1216 152.418 23.3007 152.369 23.445 152.269C23.5942 152.165 23.7086 152.028 23.7882 151.859C23.8728 151.689 23.9251 151.503 23.945 151.299H23.0644C22.7509 151.299 22.5271 151.354 22.3927 151.463C22.2634 151.573 22.1987 151.709 22.1987 151.874C22.1987 152.043 22.2609 152.177 22.3853 152.277C22.5146 152.371 22.6887 152.418 22.9076 152.418ZM25.8151 152.971V149.269H26.5166L26.5763 149.918C26.6907 149.689 26.8574 149.51 27.0763 149.381C27.3001 149.247 27.5564 149.18 27.8449 149.18C28.2927 149.18 28.6434 149.319 28.8972 149.597C29.1559 149.876 29.2852 150.291 29.2852 150.844V152.971H28.5016V150.926C28.5016 150.209 28.2081 149.851 27.621 149.851C27.3275 149.851 27.0837 149.956 26.8897 150.165C26.7006 150.374 26.6061 150.672 26.6061 151.06V152.971H25.8151Z" fill="white"/>
<path d="M69.8799 152.971V147.747H73.156V148.388H70.6709V150.038H72.7306V150.672H70.6709V152.971H69.8799ZM75.6005 153.06C75.2373 153.06 74.9139 152.981 74.6303 152.821C74.3517 152.657 74.1328 152.431 73.9736 152.142C73.8144 151.854 73.7348 151.518 73.7348 151.135C73.7348 150.747 73.8119 150.406 73.9661 150.112C74.1253 149.819 74.3442 149.59 74.6228 149.426C74.9064 149.262 75.2348 149.18 75.6079 149.18C75.9711 149.18 76.287 149.262 76.5557 149.426C76.8243 149.585 77.0333 149.799 77.1825 150.068C77.3318 150.336 77.4064 150.632 77.4064 150.956C77.4064 151.005 77.4039 151.06 77.399 151.12C77.399 151.175 77.3965 151.237 77.3915 151.306H74.5109C74.5358 151.665 74.6527 151.938 74.8616 152.127C75.0756 152.311 75.3218 152.403 75.6005 152.403C75.8243 152.403 76.0109 152.354 76.1602 152.254C76.3144 152.15 76.4288 152.01 76.5034 151.836H77.2945C77.195 152.185 76.996 152.476 76.6975 152.709C76.4039 152.943 76.0383 153.06 75.6005 153.06ZM75.6005 149.829C75.3368 149.829 75.1029 149.908 74.899 150.068C74.695 150.222 74.5706 150.456 74.5258 150.769H76.6154C76.6005 150.481 76.4985 150.252 76.3094 150.083C76.1204 149.913 75.884 149.829 75.6005 149.829ZM80.4585 153.06C80.17 153.06 79.9138 153.003 79.6899 152.888C79.471 152.774 79.2969 152.612 79.1675 152.403L79.0854 152.971H78.3765V147.597H79.1675V149.844C79.2869 149.67 79.4511 149.515 79.66 149.381C79.869 149.247 80.1377 149.18 80.466 149.18C80.8242 149.18 81.1401 149.264 81.4138 149.433C81.6874 149.602 81.9013 149.834 82.0556 150.127C82.2148 150.421 82.2944 150.754 82.2944 151.127C82.2944 151.5 82.2148 151.834 82.0556 152.127C81.9013 152.416 81.6874 152.645 81.4138 152.814C81.1401 152.978 80.8217 153.06 80.4585 153.06ZM80.3242 152.374C80.6625 152.374 80.9411 152.259 81.16 152.03C81.3789 151.796 81.4884 151.493 81.4884 151.12C81.4884 150.876 81.4386 150.66 81.3391 150.471C81.2396 150.282 81.1028 150.135 80.9287 150.03C80.7546 149.921 80.5531 149.866 80.3242 149.866C79.9859 149.866 79.7073 149.983 79.4884 150.217C79.2745 150.451 79.1675 150.752 79.1675 151.12C79.1675 151.493 79.2745 151.796 79.4884 152.03C79.7073 152.259 79.9859 152.374 80.3242 152.374Z" fill="white"/>
<path d="M122.65 152.971V147.747H123.583L125.352 151.224L127.113 147.747H128.046V152.971H127.255V149.112L125.658 152.224H125.046L123.441 149.12V152.971H122.65ZM130.48 153.06C130.167 153.06 129.908 153.008 129.704 152.903C129.5 152.799 129.349 152.662 129.249 152.493C129.15 152.319 129.1 152.13 129.1 151.926C129.1 151.568 129.239 151.284 129.518 151.075C129.796 150.866 130.194 150.762 130.712 150.762H131.682V150.694C131.682 150.406 131.602 150.189 131.443 150.045C131.289 149.901 131.087 149.829 130.839 149.829C130.62 149.829 130.428 149.884 130.264 149.993C130.105 150.097 130.008 150.254 129.973 150.463H129.182C129.207 150.194 129.296 149.966 129.451 149.777C129.61 149.583 129.809 149.436 130.048 149.336C130.291 149.232 130.558 149.18 130.846 149.18C131.364 149.18 131.764 149.316 132.048 149.59C132.331 149.859 132.473 150.227 132.473 150.694V152.971H131.786L131.719 152.336C131.615 152.54 131.463 152.712 131.264 152.851C131.065 152.99 130.804 153.06 130.48 153.06ZM130.637 152.418C130.851 152.418 131.03 152.369 131.174 152.269C131.324 152.165 131.438 152.028 131.518 151.859C131.602 151.689 131.655 151.503 131.674 151.299H130.794C130.48 151.299 130.257 151.354 130.122 151.463C129.993 151.573 129.928 151.709 129.928 151.874C129.928 152.043 129.99 152.177 130.115 152.277C130.244 152.371 130.418 152.418 130.637 152.418ZM133.545 152.971V149.269H134.254L134.321 149.971C134.45 149.727 134.629 149.535 134.858 149.396C135.092 149.252 135.373 149.18 135.701 149.18V150.008H135.485C135.266 150.008 135.069 150.045 134.895 150.12C134.726 150.189 134.589 150.311 134.485 150.486C134.385 150.655 134.336 150.891 134.336 151.194V152.971H133.545Z" fill="white"/>
<path d="M175.693 152.971L177.619 147.747H178.485L180.395 152.971H179.559L179.111 151.694H176.977L176.529 152.971H175.693ZM177.201 151.068H178.888L178.044 148.687L177.201 151.068ZM181.243 154.612V149.269H181.952L182.034 149.844C182.153 149.67 182.317 149.515 182.526 149.381C182.735 149.247 183.004 149.18 183.332 149.18C183.691 149.18 184.007 149.264 184.28 149.433C184.554 149.602 184.768 149.834 184.922 150.127C185.081 150.421 185.161 150.754 185.161 151.127C185.161 151.5 185.081 151.834 184.922 152.127C184.768 152.416 184.554 152.645 184.28 152.814C184.007 152.978 183.688 153.06 183.325 153.06C183.036 153.06 182.78 153.003 182.556 152.888C182.337 152.774 182.163 152.612 182.034 152.403V154.612H181.243ZM183.191 152.374C183.529 152.374 183.808 152.259 184.026 152.03C184.245 151.796 184.355 151.493 184.355 151.12C184.355 150.876 184.305 150.66 184.206 150.471C184.106 150.282 183.969 150.135 183.795 150.03C183.621 149.921 183.419 149.866 183.191 149.866C182.852 149.866 182.574 149.983 182.355 150.217C182.141 150.451 182.034 150.752 182.034 151.12C182.034 151.493 182.141 151.796 182.355 152.03C182.574 152.259 182.852 152.374 183.191 152.374ZM186.166 152.971V149.269H186.875L186.942 149.971C187.071 149.727 187.25 149.535 187.479 149.396C187.713 149.252 187.994 149.18 188.322 149.18V150.008H188.106C187.887 150.008 187.69 150.045 187.516 150.12C187.347 150.189 187.21 150.311 187.106 150.486C187.006 150.655 186.957 150.891 186.957 151.194V152.971H186.166Z" fill="white"/>
<path d="M228.973 152.971V147.747H229.905L231.674 151.224L233.435 147.747H234.368V152.971H233.577V149.112L231.98 152.224H231.368L229.764 149.12V152.971H228.973ZM236.803 153.06C236.489 153.06 236.231 153.008 236.027 152.903C235.823 152.799 235.671 152.662 235.571 152.493C235.472 152.319 235.422 152.13 235.422 151.926C235.422 151.568 235.561 151.284 235.84 151.075C236.119 150.866 236.517 150.762 237.034 150.762H238.004V150.694C238.004 150.406 237.925 150.189 237.765 150.045C237.611 149.901 237.41 149.829 237.161 149.829C236.942 149.829 236.75 149.884 236.586 149.993C236.427 150.097 236.33 150.254 236.295 150.463H235.504C235.529 150.194 235.619 149.966 235.773 149.777C235.932 149.583 236.131 149.436 236.37 149.336C236.614 149.232 236.88 149.18 237.168 149.18C237.686 149.18 238.086 149.316 238.37 149.59C238.653 149.859 238.795 150.227 238.795 150.694V152.971H238.109L238.041 152.336C237.937 152.54 237.785 152.712 237.586 152.851C237.387 152.99 237.126 153.06 236.803 153.06ZM236.959 152.418C237.173 152.418 237.352 152.369 237.497 152.269C237.646 152.165 237.76 152.028 237.84 151.859C237.925 151.689 237.977 151.503 237.997 151.299H237.116C236.803 151.299 236.579 151.354 236.444 151.463C236.315 151.573 236.25 151.709 236.25 151.874C236.25 152.043 236.313 152.177 236.437 152.277C236.566 152.371 236.74 152.418 236.959 152.418ZM240.183 154.612L241.071 152.665H240.855L239.392 149.269H240.25L241.385 152.008L242.571 149.269H243.407L241.019 154.612H240.183Z" fill="white"/>
<path d="M284.816 153.06C284.328 153.06 283.94 152.923 283.652 152.65C283.368 152.376 283.226 151.99 283.226 151.493H284.017C284.017 151.742 284.077 151.948 284.197 152.112C284.321 152.277 284.522 152.359 284.801 152.359C285.075 152.359 285.269 152.282 285.383 152.127C285.498 151.968 285.555 151.767 285.555 151.523V147.747H286.346V151.523C286.346 152.015 286.209 152.396 285.935 152.665C285.662 152.928 285.289 153.06 284.816 153.06ZM288.888 153.06C288.44 153.06 288.087 152.921 287.828 152.642C287.574 152.364 287.448 151.948 287.448 151.396V149.269H288.239V151.314C288.239 152.03 288.532 152.388 289.119 152.388C289.413 152.388 289.654 152.284 289.843 152.075C290.032 151.866 290.127 151.568 290.127 151.18V149.269H290.918V152.971H290.216L290.156 152.321C290.042 152.55 289.873 152.732 289.649 152.866C289.43 152.995 289.176 153.06 288.888 153.06ZM292.073 152.971V149.269H292.775L292.834 149.918C292.949 149.689 293.116 149.51 293.334 149.381C293.558 149.247 293.815 149.18 294.103 149.18C294.551 149.18 294.902 149.319 295.155 149.597C295.414 149.876 295.543 150.291 295.543 150.844V152.971H294.76V150.926C294.76 150.209 294.466 149.851 293.879 149.851C293.586 149.851 293.342 149.956 293.148 150.165C292.959 150.374 292.864 150.672 292.864 151.06V152.971H292.073Z" fill="white"/>
<path d="M337.121 153.06C336.633 153.06 336.245 152.923 335.956 152.65C335.673 152.376 335.531 151.99 335.531 151.493H336.322C336.322 151.742 336.382 151.948 336.501 152.112C336.625 152.277 336.827 152.359 337.106 152.359C337.379 152.359 337.573 152.282 337.688 152.127C337.802 151.968 337.859 151.767 337.859 151.523V147.747H338.65V151.523C338.65 152.015 338.514 152.396 338.24 152.665C337.966 152.928 337.593 153.06 337.121 153.06ZM341.192 153.06C340.745 153.06 340.391 152.921 340.133 152.642C339.879 152.364 339.752 151.948 339.752 151.396V149.269H340.543V151.314C340.543 152.03 340.837 152.388 341.424 152.388C341.717 152.388 341.959 152.284 342.148 152.075C342.337 151.866 342.431 151.568 342.431 151.18V149.269H343.222V152.971H342.521L342.461 152.321C342.347 152.55 342.177 152.732 341.954 152.866C341.735 152.995 341.481 153.06 341.192 153.06ZM344.378 152.971V147.597H345.169V152.971H344.378Z" fill="white"/>
<path d="M385.245 152.971L387.171 147.747H388.036L389.947 152.971H389.111L388.663 151.694H386.529L386.081 152.971H385.245ZM386.753 151.068H388.439L387.596 148.687L386.753 151.068ZM392.08 153.06C391.632 153.06 391.279 152.921 391.02 152.642C390.767 152.364 390.64 151.948 390.64 151.396V149.269H391.431V151.314C391.431 152.03 391.724 152.388 392.312 152.388C392.605 152.388 392.846 152.284 393.035 152.075C393.224 151.866 393.319 151.568 393.319 151.18V149.269H394.11V152.971H393.409L393.349 152.321C393.234 152.55 393.065 152.732 392.841 152.866C392.622 152.995 392.369 153.06 392.08 153.06ZM396.78 151.836C396.586 151.836 396.407 151.814 396.243 151.769L395.922 152.083C395.977 152.117 396.044 152.147 396.124 152.172C396.203 152.197 396.315 152.219 396.46 152.239C396.604 152.259 396.8 152.279 397.049 152.299C397.542 152.344 397.897 152.463 398.116 152.657C398.335 152.846 398.445 153.1 398.445 153.418C398.445 153.637 398.385 153.844 398.266 154.038C398.151 154.237 397.97 154.396 397.721 154.515C397.477 154.64 397.164 154.702 396.78 154.702C396.263 154.702 395.843 154.602 395.519 154.403C395.201 154.209 395.042 153.913 395.042 153.515C395.042 153.361 395.081 153.207 395.161 153.053C395.246 152.903 395.378 152.762 395.557 152.627C395.452 152.583 395.36 152.535 395.28 152.486C395.206 152.431 395.139 152.376 395.079 152.321V152.142L395.721 151.486C395.432 151.237 395.288 150.911 395.288 150.508C395.288 150.264 395.345 150.043 395.46 149.844C395.579 149.64 395.751 149.478 395.975 149.359C396.198 149.239 396.467 149.18 396.78 149.18C396.989 149.18 397.183 149.209 397.363 149.269H398.743V149.791L398.086 149.829C398.206 150.033 398.266 150.259 398.266 150.508C398.266 150.757 398.206 150.981 398.086 151.18C397.972 151.379 397.803 151.538 397.579 151.657C397.36 151.777 397.094 151.836 396.78 151.836ZM396.78 151.217C397.009 151.217 397.193 151.157 397.333 151.038C397.477 150.913 397.549 150.739 397.549 150.515C397.549 150.287 397.477 150.112 397.333 149.993C397.193 149.874 397.009 149.814 396.78 149.814C396.547 149.814 396.358 149.874 396.213 149.993C396.074 150.112 396.004 150.287 396.004 150.515C396.004 150.739 396.074 150.913 396.213 151.038C396.358 151.157 396.547 151.217 396.78 151.217ZM395.788 153.441C395.788 153.655 395.882 153.814 396.072 153.918C396.261 154.028 396.497 154.083 396.78 154.083C397.054 154.083 397.276 154.023 397.445 153.903C397.614 153.789 397.698 153.635 397.698 153.441C397.698 153.296 397.641 153.172 397.527 153.068C397.412 152.968 397.196 152.906 396.878 152.881C396.639 152.866 396.427 152.844 396.243 152.814C396.069 152.908 395.95 153.01 395.885 153.12C395.82 153.229 395.788 153.336 395.788 153.441Z" fill="white"/>
<path d="M440.345 153.06C439.962 153.06 439.626 152.993 439.338 152.859C439.049 152.724 438.823 152.533 438.658 152.284C438.499 152.035 438.417 151.739 438.412 151.396H439.248C439.253 151.675 439.35 151.911 439.539 152.105C439.728 152.299 439.994 152.396 440.338 152.396C440.641 152.396 440.877 152.324 441.047 152.18C441.221 152.03 441.308 151.841 441.308 151.612C441.308 151.428 441.265 151.279 441.181 151.165C441.101 151.05 440.989 150.956 440.845 150.881C440.706 150.806 440.544 150.739 440.36 150.68C440.176 150.62 439.982 150.555 439.778 150.486C439.375 150.351 439.071 150.177 438.867 149.963C438.668 149.749 438.569 149.468 438.569 149.12C438.564 148.826 438.631 148.57 438.77 148.351C438.915 148.132 439.114 147.963 439.367 147.844C439.626 147.719 439.927 147.657 440.27 147.657C440.609 147.657 440.905 147.719 441.158 147.844C441.417 147.968 441.619 148.142 441.763 148.366C441.907 148.585 441.982 148.841 441.987 149.135H441.151C441.151 149 441.116 148.874 441.047 148.754C440.977 148.63 440.875 148.528 440.741 148.448C440.606 148.369 440.442 148.329 440.248 148.329C439.999 148.324 439.793 148.386 439.629 148.515C439.469 148.645 439.39 148.824 439.39 149.053C439.39 149.257 439.45 149.413 439.569 149.523C439.688 149.632 439.853 149.724 440.061 149.799C440.27 149.869 440.509 149.951 440.778 150.045C441.037 150.13 441.268 150.232 441.472 150.351C441.676 150.471 441.838 150.627 441.957 150.821C442.081 151.015 442.144 151.262 442.144 151.56C442.144 151.824 442.076 152.07 441.942 152.299C441.808 152.523 441.606 152.707 441.338 152.851C441.069 152.99 440.738 153.06 440.345 153.06ZM444.859 153.06C444.496 153.06 444.173 152.981 443.889 152.821C443.61 152.657 443.392 152.431 443.232 152.142C443.073 151.854 442.993 151.518 442.993 151.135C442.993 150.747 443.071 150.406 443.225 150.112C443.384 149.819 443.603 149.59 443.882 149.426C444.165 149.262 444.493 149.18 444.867 149.18C445.23 149.18 445.546 149.262 445.814 149.426C446.083 149.585 446.292 149.799 446.441 150.068C446.591 150.336 446.665 150.632 446.665 150.956C446.665 151.005 446.663 151.06 446.658 151.12C446.658 151.175 446.655 151.237 446.65 151.306H443.77C443.794 151.665 443.911 151.938 444.12 152.127C444.334 152.311 444.581 152.403 444.859 152.403C445.083 152.403 445.27 152.354 445.419 152.254C445.573 152.15 445.688 152.01 445.762 151.836H446.553C446.454 152.185 446.255 152.476 445.956 152.709C445.663 152.943 445.297 153.06 444.859 153.06ZM444.859 149.829C444.595 149.829 444.362 149.908 444.158 150.068C443.954 150.222 443.829 150.456 443.785 150.769H445.874C445.859 150.481 445.757 150.252 445.568 150.083C445.379 149.913 445.143 149.829 444.859 149.829ZM447.635 154.612V149.269H448.344L448.426 149.844C448.546 149.67 448.71 149.515 448.919 149.381C449.128 149.247 449.396 149.18 449.725 149.18C450.083 149.18 450.399 149.264 450.672 149.433C450.946 149.602 451.16 149.834 451.314 150.127C451.473 150.421 451.553 150.754 451.553 151.127C451.553 151.5 451.473 151.834 451.314 152.127C451.16 152.416 450.946 152.645 450.672 152.814C450.399 152.978 450.08 153.06 449.717 153.06C449.429 153.06 449.172 153.003 448.949 152.888C448.73 152.774 448.556 152.612 448.426 152.403V154.612H447.635ZM449.583 152.374C449.921 152.374 450.2 152.259 450.419 152.03C450.638 151.796 450.747 151.493 450.747 151.12C450.747 150.876 450.697 150.66 450.598 150.471C450.498 150.282 450.362 150.135 450.187 150.03C450.013 149.921 449.812 149.866 449.583 149.866C449.245 149.866 448.966 149.983 448.747 150.217C448.533 150.451 448.426 150.752 448.426 151.12C448.426 151.493 448.533 151.796 448.747 152.03C448.966 152.259 449.245 152.374 449.583 152.374Z" fill="white"/>
</svg>
