<svg width="18" height="20" viewBox="0 0 18 20" fill="none" xmlns="http://www.w3.org/2000/svg">
<path d="M6.32222 18.4143V15.5566C6.32222 14.8271 6.91791 14.2358 7.65274 14.2358H10.3389C10.6918 14.2358 11.0302 14.3749 11.2797 14.6227C11.5292 14.8704 11.6694 15.2063 11.6694 15.5566V18.4143C11.6672 18.7176 11.787 19.0092 12.0022 19.2244C12.2174 19.4397 12.5103 19.5607 12.8158 19.5607H14.6484C15.5043 19.5629 16.3259 19.2269 16.9319 18.6269C17.5379 18.0269 17.8785 17.2121 17.8785 16.3624V8.22135C17.8785 7.53499 17.572 6.88395 17.0417 6.4436L10.8075 1.50079C9.72304 0.634152 8.16926 0.662133 7.11718 1.56725L1.02524 6.4436C0.469846 6.87097 0.137894 7.52394 0.12149 8.22135V16.3541C0.12149 18.1251 1.56764 19.5607 3.35156 19.5607H5.14232C5.77684 19.5607 6.29252 19.0525 6.29711 18.4226L6.32222 18.4143Z" fill="#FF8D24"/>
</svg>
