<svg width="22" height="16" viewBox="0 0 22 16" fill="none" xmlns="http://www.w3.org/2000/svg">
<path d="M16.8877 6.98859C18.2827 6.80892 19.3567 5.71258 19.3597 4.38433C19.3597 3.07533 18.3187 1.99 16.9537 1.78467" stroke="#9D9D9D" stroke-width="1.4" stroke-linecap="round" stroke-linejoin="round"/>
<path d="M18.7285 10.0627C20.0795 10.2479 21.0225 10.6815 21.0225 11.5752C21.0225 12.1903 20.5785 12.59 19.8605 12.8412" stroke="#9D9D9D" stroke-width="1.4" stroke-linecap="round" stroke-linejoin="round"/>
<path fill-rule="evenodd" clip-rule="evenodd" d="M10.8867 10.4419C7.67267 10.4419 4.92767 10.8883 4.92767 12.6712C4.92767 14.4532 7.65567 14.9125 10.8867 14.9125C14.1007 14.9125 16.8447 14.4706 16.8447 12.6868C16.8447 10.903 14.1177 10.4419 10.8867 10.4419Z" stroke="#9D9D9D" stroke-width="1.4" stroke-linecap="round" stroke-linejoin="round"/>
<path fill-rule="evenodd" clip-rule="evenodd" d="M10.8867 7.89725C12.9957 7.89725 14.7057 6.33067 14.7057 4.3965C14.7057 2.46325 12.9957 0.895752 10.8867 0.895752C8.77766 0.895752 7.06766 2.46325 7.06766 4.3965C7.05966 6.32334 8.75666 7.89084 10.8587 7.89725H10.8867Z" stroke="#9D9D9D" stroke-width="1.4" stroke-linecap="round" stroke-linejoin="round"/>
<path d="M4.88478 6.98859C3.48878 6.80892 2.41578 5.71258 2.41278 4.38433C2.41278 3.07533 3.45378 1.99 4.81878 1.78467" stroke="#9D9D9D" stroke-width="1.4" stroke-linecap="round" stroke-linejoin="round"/>
<path d="M3.04388 10.0627C1.69288 10.2479 0.749878 10.6815 0.749878 11.5752C0.749878 12.1903 1.19388 12.59 1.91188 12.8412" stroke="#9D9D9D" stroke-width="1.4" stroke-linecap="round" stroke-linejoin="round"/>
</svg>
