<svg width="23" height="18" viewBox="0 0 23 18" fill="none" xmlns="http://www.w3.org/2000/svg">
<path d="M22.5036 14.9093C22.8922 14.8283 23.1237 14.4216 22.9306 14.0748C22.5048 13.3101 21.8341 12.6382 20.9761 12.1261C19.8711 11.4666 18.5171 11.1091 17.1243 11.1091C15.7314 11.1091 14.3775 11.4666 13.2725 12.1261C12.4144 12.6382 11.7437 13.3101 11.318 14.0748C11.1249 14.4216 11.3563 14.8283 11.745 14.9093C15.2931 15.6487 18.9555 15.6487 22.5036 14.9093Z" fill="#B9B9B9"/>
<path d="M20.6395 6.18788C20.6395 8.12926 19.0657 9.70306 17.1243 9.70306C15.1829 9.70306 13.6091 8.12926 13.6091 6.18788C13.6091 4.2465 15.1829 2.6727 17.1243 2.6727C19.0657 2.6727 20.6395 4.2465 20.6395 6.18788Z" fill="#B9B9B9"/>
<path d="M11.255 14.9093C11.6437 14.8283 11.8751 14.4216 11.682 14.0748C11.2563 13.3101 10.5856 12.6382 9.72754 12.1261C8.62252 11.4666 7.26858 11.1091 5.87572 11.1091C4.48286 11.1091 3.12892 11.4666 2.02389 12.1261C1.16588 12.6382 0.495168 13.3101 0.0694224 14.0748C-0.1237 14.4216 0.107764 14.8283 0.496413 14.9093C4.0445 15.6487 7.70693 15.6487 11.255 14.9093Z" fill="#B9B9B9"/>
<path d="M9.39089 6.18788C9.39089 8.12926 7.8171 9.70306 5.87572 9.70306C3.93434 9.70306 2.36054 8.12926 2.36054 6.18788C2.36054 4.2465 3.93434 2.6727 5.87572 2.6727C7.8171 2.6727 9.39089 4.2465 9.39089 6.18788Z" fill="#B9B9B9"/>
<path d="M18.3286 16.7049C18.8401 16.5981 19.1448 16.0616 18.8906 15.6041C18.3302 14.5954 17.4475 13.709 16.3182 13.0336C14.8638 12.1636 13.0818 11.6921 11.2486 11.6921C9.41534 11.6921 7.63334 12.1636 6.17894 13.0336C5.04967 13.709 4.1669 14.5954 3.60655 15.6041C3.35237 16.0616 3.65701 16.5981 4.16854 16.7049C8.83839 17.6803 13.6587 17.6803 18.3286 16.7049Z" fill="#F3F3F3"/>
<path d="M15.8751 5.20047C15.8751 7.76134 13.8037 9.83734 11.2486 9.83734C8.6934 9.83734 6.62203 7.76134 6.62203 5.20047C6.62203 2.6396 8.6934 0.563599 11.2486 0.563599C13.8037 0.563599 15.8751 2.6396 15.8751 5.20047Z" fill="#F3F3F3"/>
</svg>
