<svg width="16" height="16" viewBox="0 0 16 16" fill="none" xmlns="http://www.w3.org/2000/svg">
<path d="M8 4.8C8.8723 4.8 9.70888 5.13714 10.3257 5.73726C10.9425 6.33737 11.289 7.15131 11.289 8C11.289 8.84869 10.9425 9.66263 10.3257 10.2627C9.70888 10.8629 8.8723 11.2 8 11.2C7.1277 11.2 6.29112 10.8629 5.67431 10.2627C5.0575 9.66263 4.71098 8.84869 4.71098 8C4.71098 7.15131 5.0575 6.33737 5.67431 5.73726C6.29112 5.13714 7.1277 4.8 8 4.8ZM8 6.4C7.56385 6.4 7.14556 6.56857 6.83715 6.86863C6.52875 7.16869 6.35549 7.57565 6.35549 8C6.35549 8.42435 6.52875 8.83131 6.83715 9.13137C7.14556 9.43143 7.56385 9.6 8 9.6C8.43615 9.6 8.85444 9.43143 9.16285 9.13137C9.47125 8.83131 9.64451 8.42435 9.64451 8C9.64451 7.57565 9.47125 7.16869 9.16285 6.86863C8.85444 6.56857 8.43615 6.4 8 6.4ZM6.35549 16C6.14992 16 5.97725 15.856 5.94436 15.664L5.75684 14.3573C5.68476 13.855 5.33291 13.4395 4.89489 13.1834C4.47478 12.9377 3.97484 12.8608 3.52214 13.0394L2.2031 13.56C2.0222 13.624 1.80019 13.56 1.70152 13.384L0.0570083 10.616C-0.049885 10.44 -0.000549525 10.224 0.155679 10.104L1.34628 9.19267C1.68594 8.93268 1.87157 8.51893 1.83993 8.09236C1.83537 8.03087 1.83532 7.96887 1.83975 7.90738C1.87138 7.46762 1.6777 7.03996 1.32526 6.77506L0.155679 5.896C-0.000549525 5.776 -0.049885 5.56 0.0570083 5.384L1.70152 2.616C1.80019 2.44 2.0222 2.368 2.2031 2.44L3.52998 2.95846C3.97883 3.13384 4.4721 3.06153 4.88863 2.81918C5.32991 2.56243 5.68503 2.14307 5.75756 1.63771L5.94436 0.336C5.97725 0.144 6.14992 0 6.35549 0H9.64451C9.85008 0 10.0227 0.144 10.0556 0.336L10.2424 1.63771C10.315 2.14308 10.6701 2.56243 11.1114 2.81918C11.5279 3.06153 12.0212 3.13384 12.47 2.95846L13.7969 2.44C13.9778 2.368 14.1998 2.44 14.2985 2.616L15.943 5.384C16.0499 5.56 16.0005 5.776 15.8443 5.896L14.6758 6.77429C14.3227 7.03967 14.1285 7.46617 14.1602 7.90672C14.1647 7.96883 14.1647 8.03117 14.1602 8.09328C14.1285 8.53383 14.3227 8.96033 14.6758 9.22571L15.8443 10.104C16.0005 10.224 16.0499 10.44 15.943 10.616L14.2985 13.384C14.1998 13.56 13.9778 13.632 13.7969 13.56L12.47 13.0415C12.0212 12.8662 11.5279 12.9385 11.1114 13.1808C10.6701 13.4376 10.315 13.8569 10.2424 14.3623L10.0556 15.664C10.0227 15.856 9.85008 16 9.64451 16H6.35549ZM7.99983 1.6C7.64583 1.6 7.34546 1.85978 7.29442 2.21008L7.21554 2.75142C7.13368 3.31326 6.69888 3.74556 6.17719 3.96962C5.86654 4.10304 5.57423 4.2693 5.30531 4.46384C4.83577 4.8035 4.22857 4.96124 3.69424 4.7369L3.14871 4.50786C2.83763 4.37725 2.47787 4.49608 2.30579 4.78628C2.1268 5.08813 2.20862 5.47675 2.49412 5.6808L2.9437 6.00212C3.40615 6.33263 3.57464 6.92826 3.50775 7.49273C3.468 7.82808 3.46755 8.16647 3.50638 8.50095C3.57237 9.06922 3.40397 9.66931 2.93881 10.0023L2.48614 10.3264C2.20044 10.531 2.11869 10.92 2.2979 11.2223C2.46992 11.5124 2.8292 11.6316 3.14055 11.502L3.69806 11.2698C4.23592 11.0459 4.84568 11.2037 5.31878 11.5438C5.57972 11.7313 5.86223 11.8923 6.16193 12.0218C6.6863 12.2484 7.12576 12.6823 7.20782 13.2476L7.2853 13.7814C7.33684 14.1365 7.6413 14.4 8.00017 14.4C8.35889 14.4 8.66327 14.1368 8.71499 13.7818L8.79281 13.2477C8.87463 12.6862 9.3088 12.2539 9.82934 12.0281C10.1323 11.8967 10.4179 11.7337 10.6814 11.544C11.1542 11.2035 11.7641 11.0459 12.3019 11.2698L12.8603 11.5023C13.1712 11.6318 13.5299 11.5127 13.7016 11.2231C13.881 10.9206 13.7985 10.5312 13.512 10.3274L13.06 10.0059C12.5956 9.67553 12.4259 9.07828 12.4926 8.51224C12.5325 8.17352 12.5323 7.83142 12.4922 7.49273C12.4253 6.92826 12.5939 6.33263 13.0563 6.00212L13.5059 5.6808C13.7914 5.47675 13.8732 5.08813 13.6942 4.78628C13.5221 4.49608 13.1624 4.37725 12.8513 4.50786L12.3058 4.7369C11.7714 4.96124 11.1643 4.80331 10.6945 4.46403C10.4282 4.27167 10.1389 4.10736 9.83151 3.97587C9.306 3.75104 8.86594 3.31718 8.78384 2.75152L8.7053 2.21046C8.65443 1.85999 8.35398 1.6 7.99983 1.6Z" fill="white" fill-opacity="0.85"/>
</svg>
